<mxfile host="app.diagrams.net" modified="2024-03-16T21:05:10.967Z" agent="Mozilla/5.0 (Windows NT 10.0; Win64; x64) AppleWebKit/537.36 (KHTML, like Gecko) Chrome/121.0.0.0 Safari/537.36 OPR/107.0.0.0" etag="1RAybIRDWRxo4uaMHXoS" version="24.0.6" type="github">
  <diagram name="Page-1" id="d65NQUgzW-5zzPZq7MVU">
    <mxGraphModel dx="1009" dy="638" grid="1" gridSize="10" guides="1" tooltips="1" connect="1" arrows="1" fold="1" page="1" pageScale="1" pageWidth="2336" pageHeight="1654" math="0" shadow="0">
      <root>
        <mxCell id="0" />
        <mxCell id="1" parent="0" />
        <mxCell id="5tHXkLdyoTB7gvG9HKrc-1" value="&lt;font style=&quot;font-size: 30px;&quot;&gt;Ski Lift&lt;/font&gt;" style="rounded=0;whiteSpace=wrap;html=1;" vertex="1" parent="1">
          <mxGeometry x="1371.25" y="327.5" width="150" height="75" as="geometry" />
        </mxCell>
        <mxCell id="5tHXkLdyoTB7gvG9HKrc-2" value="&lt;font style=&quot;font-size: 28px;&quot;&gt;&lt;u&gt;code&lt;/u&gt;&lt;/font&gt;" style="ellipse;whiteSpace=wrap;html=1;" vertex="1" parent="1">
          <mxGeometry x="1558.5" y="240.13" width="105" height="70" as="geometry" />
        </mxCell>
        <mxCell id="5tHXkLdyoTB7gvG9HKrc-3" value="&lt;font style=&quot;font-size: 28px;&quot;&gt;type&lt;/font&gt;" style="ellipse;whiteSpace=wrap;html=1;" vertex="1" parent="1">
          <mxGeometry x="1356.25" y="153.88" width="95" height="60" as="geometry" />
        </mxCell>
        <mxCell id="5tHXkLdyoTB7gvG9HKrc-4" value="&lt;font style=&quot;font-size: 28px;&quot;&gt;capacity&lt;/font&gt;" style="ellipse;whiteSpace=wrap;html=1;" vertex="1" parent="1">
          <mxGeometry x="1251.25" y="217.5" width="130" height="70" as="geometry" />
        </mxCell>
        <mxCell id="5tHXkLdyoTB7gvG9HKrc-5" value="&lt;span style=&quot;font-size: 28px;&quot;&gt;installer&lt;/span&gt;&lt;div&gt;&lt;span style=&quot;font-size: 28px;&quot;&gt;CIF&lt;/span&gt;&lt;/div&gt;" style="ellipse;whiteSpace=wrap;html=1;" vertex="1" parent="1">
          <mxGeometry x="1462.5" y="141.38" width="130" height="85" as="geometry" />
        </mxCell>
        <mxCell id="5tHXkLdyoTB7gvG9HKrc-6" value="&lt;font style=&quot;font-size: 30px;&quot;&gt;Funicular&lt;/font&gt;" style="rounded=0;whiteSpace=wrap;html=1;" vertex="1" parent="1">
          <mxGeometry x="690" y="204.38" width="150" height="75" as="geometry" />
        </mxCell>
        <mxCell id="5tHXkLdyoTB7gvG9HKrc-7" value="&lt;font style=&quot;font-size: 28px;&quot;&gt;code&lt;/font&gt;" style="ellipse;whiteSpace=wrap;html=1;" vertex="1" parent="1">
          <mxGeometry x="790" y="113.88" width="90" height="37.5" as="geometry" />
        </mxCell>
        <mxCell id="5tHXkLdyoTB7gvG9HKrc-8" value="&lt;font style=&quot;font-size: 28px;&quot;&gt;number of Cabins&lt;/font&gt;" style="ellipse;whiteSpace=wrap;html=1;" vertex="1" parent="1">
          <mxGeometry x="590" y="94.57" width="150" height="76.12" as="geometry" />
        </mxCell>
        <mxCell id="5tHXkLdyoTB7gvG9HKrc-9" value="&lt;span style=&quot;font-size: 28px;&quot;&gt;braking&amp;nbsp;&lt;/span&gt;&lt;div&gt;&lt;span style=&quot;font-size: 28px;&quot;&gt;System&lt;/span&gt;&lt;/div&gt;" style="ellipse;whiteSpace=wrap;html=1;" vertex="1" parent="1">
          <mxGeometry x="580" y="305.13" width="160" height="81.25" as="geometry" />
        </mxCell>
        <mxCell id="5tHXkLdyoTB7gvG9HKrc-10" value="&lt;span style=&quot;font-size: 28px;&quot;&gt;CategoryCode&lt;/span&gt;" style="ellipse;whiteSpace=wrap;html=1;" vertex="1" parent="1">
          <mxGeometry x="775" y="305.13" width="200" height="70" as="geometry" />
        </mxCell>
        <mxCell id="5tHXkLdyoTB7gvG9HKrc-12" value="&lt;font style=&quot;font-size: 30px;&quot;&gt;Funicular&lt;/font&gt;&lt;div&gt;&lt;font style=&quot;font-size: 30px;&quot;&gt;Category&lt;/font&gt;&lt;/div&gt;" style="rounded=0;whiteSpace=wrap;html=1;" vertex="1" parent="1">
          <mxGeometry x="240" y="205.38" width="150" height="75" as="geometry" />
        </mxCell>
        <mxCell id="5tHXkLdyoTB7gvG9HKrc-13" value="&lt;span style=&quot;font-size: 30px;&quot;&gt;SkiSlope&lt;/span&gt;" style="rounded=0;whiteSpace=wrap;html=1;" vertex="1" parent="1">
          <mxGeometry x="1378.5" y="807.5" width="150" height="55" as="geometry" />
        </mxCell>
        <mxCell id="5tHXkLdyoTB7gvG9HKrc-14" value="&lt;span style=&quot;font-size: 30px;&quot;&gt;SnowCanon&lt;/span&gt;" style="rounded=0;whiteSpace=wrap;html=1;" vertex="1" parent="1">
          <mxGeometry x="1362.5" y="1265" width="190" height="45" as="geometry" />
        </mxCell>
        <mxCell id="5tHXkLdyoTB7gvG9HKrc-15" value="&lt;span style=&quot;font-size: 30px;&quot;&gt;Breakdown&lt;/span&gt;" style="rounded=0;whiteSpace=wrap;html=1;" vertex="1" parent="1">
          <mxGeometry x="802.5" y="1262.5" width="160" height="50" as="geometry" />
        </mxCell>
        <mxCell id="5tHXkLdyoTB7gvG9HKrc-16" value="&lt;span style=&quot;font-size: 30px;&quot;&gt;Company&lt;/span&gt;" style="rounded=0;whiteSpace=wrap;html=1;" vertex="1" parent="1">
          <mxGeometry x="1903.75" y="360" width="140" height="60" as="geometry" />
        </mxCell>
        <mxCell id="5tHXkLdyoTB7gvG9HKrc-17" value="&lt;span style=&quot;font-size: 30px;&quot;&gt;TrackState&lt;/span&gt;" style="rounded=0;whiteSpace=wrap;html=1;" vertex="1" parent="1">
          <mxGeometry x="2050" y="807.5" width="160" height="60" as="geometry" />
        </mxCell>
        <mxCell id="5tHXkLdyoTB7gvG9HKrc-18" value="&lt;span style=&quot;font-size: 30px;&quot;&gt;Employee&lt;/span&gt;" style="rounded=0;whiteSpace=wrap;html=1;" vertex="1" parent="1">
          <mxGeometry x="480" y="810.62" width="160" height="60" as="geometry" />
        </mxCell>
        <mxCell id="5tHXkLdyoTB7gvG9HKrc-19" value="&lt;span style=&quot;font-size: 30px;&quot;&gt;LiftManager&lt;/span&gt;" style="rounded=0;whiteSpace=wrap;html=1;" vertex="1" parent="1">
          <mxGeometry x="470" y="523.13" width="180" height="60" as="geometry" />
        </mxCell>
        <mxCell id="5tHXkLdyoTB7gvG9HKrc-20" value="&lt;span style=&quot;font-size: 30px;&quot;&gt;TrackManager&lt;/span&gt;" style="rounded=0;whiteSpace=wrap;html=1;" vertex="1" parent="1">
          <mxGeometry x="921.25" y="807.5" width="200" height="60" as="geometry" />
        </mxCell>
        <mxCell id="5tHXkLdyoTB7gvG9HKrc-21" value="&lt;font style=&quot;font-size: 28px;&quot;&gt;&lt;u&gt;code&lt;/u&gt;&lt;/font&gt;" style="ellipse;whiteSpace=wrap;html=1;" vertex="1" parent="1">
          <mxGeometry x="82.5" y="257.5" width="130" height="70" as="geometry" />
        </mxCell>
        <mxCell id="5tHXkLdyoTB7gvG9HKrc-22" value="&lt;font style=&quot;font-size: 28px;&quot;&gt;description&lt;/font&gt;" style="ellipse;whiteSpace=wrap;html=1;" vertex="1" parent="1">
          <mxGeometry x="90" y="124.88" width="150" height="70" as="geometry" />
        </mxCell>
        <mxCell id="5tHXkLdyoTB7gvG9HKrc-23" value="&lt;font style=&quot;font-size: 28px;&quot;&gt;gradient&lt;/font&gt;" style="ellipse;whiteSpace=wrap;html=1;" vertex="1" parent="1">
          <mxGeometry x="1310" y="740" width="122.5" height="50" as="geometry" />
        </mxCell>
        <mxCell id="5tHXkLdyoTB7gvG9HKrc-24" value="&lt;font style=&quot;font-size: 28px;&quot;&gt;length&lt;/font&gt;" style="ellipse;whiteSpace=wrap;html=1;" vertex="1" parent="1">
          <mxGeometry x="1507.5" y="867.5" width="110" height="60" as="geometry" />
        </mxCell>
        <mxCell id="5tHXkLdyoTB7gvG9HKrc-25" value="&lt;font style=&quot;font-size: 28px;&quot;&gt;type&lt;/font&gt;" style="ellipse;whiteSpace=wrap;html=1;" vertex="1" parent="1">
          <mxGeometry x="1326.25" y="880.63" width="90" height="60" as="geometry" />
        </mxCell>
        <mxCell id="5tHXkLdyoTB7gvG9HKrc-26" value="&lt;span style=&quot;font-size: 28px;&quot;&gt;type&lt;/span&gt;&lt;div&gt;&lt;span style=&quot;font-size: 28px;&quot;&gt;description&lt;/span&gt;&lt;/div&gt;" style="ellipse;whiteSpace=wrap;html=1;" vertex="1" parent="1">
          <mxGeometry x="1484" y="710" width="170" height="80" as="geometry" />
        </mxCell>
        <mxCell id="5tHXkLdyoTB7gvG9HKrc-27" value="&lt;span style=&quot;font-size: 28px;&quot;&gt;manufacturer&lt;/span&gt;" style="ellipse;whiteSpace=wrap;html=1;" vertex="1" parent="1">
          <mxGeometry x="1266.25" y="1350" width="180" height="70" as="geometry" />
        </mxCell>
        <mxCell id="5tHXkLdyoTB7gvG9HKrc-28" value="&lt;font style=&quot;font-size: 28px;&quot;&gt;&lt;u&gt;code&lt;/u&gt;&lt;/font&gt;" style="ellipse;whiteSpace=wrap;html=1;" vertex="1" parent="1">
          <mxGeometry x="1528.5" y="1350" width="72" height="45" as="geometry" />
        </mxCell>
        <mxCell id="5tHXkLdyoTB7gvG9HKrc-29" value="&lt;font style=&quot;font-size: 28px;&quot;&gt;model&lt;/font&gt;" style="ellipse;whiteSpace=wrap;html=1;" vertex="1" parent="1">
          <mxGeometry x="1276.25" y="1183" width="105" height="70" as="geometry" />
        </mxCell>
        <mxCell id="5tHXkLdyoTB7gvG9HKrc-30" value="&lt;font style=&quot;font-size: 28px;&quot;&gt;trackcode&lt;/font&gt;" style="ellipse;whiteSpace=wrap;html=1;" vertex="1" parent="1">
          <mxGeometry x="1552.5" y="1202.5" width="155" height="70" as="geometry" />
        </mxCell>
        <mxCell id="5tHXkLdyoTB7gvG9HKrc-31" value="&lt;span style=&quot;font-size: 28px;&quot;&gt;&lt;u&gt;date/time&lt;/u&gt;&lt;/span&gt;" style="ellipse;whiteSpace=wrap;html=1;" vertex="1" parent="1">
          <mxGeometry x="890" y="1132.5" width="180" height="70" as="geometry" />
        </mxCell>
        <mxCell id="5tHXkLdyoTB7gvG9HKrc-32" value="&lt;span style=&quot;font-size: 28px;&quot;&gt;repair date&lt;/span&gt;" style="ellipse;whiteSpace=wrap;html=1;" vertex="1" parent="1">
          <mxGeometry x="662.5" y="1352.5" width="180" height="70" as="geometry" />
        </mxCell>
        <mxCell id="5tHXkLdyoTB7gvG9HKrc-33" value="&lt;span style=&quot;font-size: 28px;&quot;&gt;reason code&lt;/span&gt;" style="ellipse;whiteSpace=wrap;html=1;" vertex="1" parent="1">
          <mxGeometry x="890" y="1365" width="180" height="70" as="geometry" />
        </mxCell>
        <mxCell id="5tHXkLdyoTB7gvG9HKrc-34" value="&lt;span style=&quot;font-size: 28px;&quot;&gt;snow canon code&lt;/span&gt;" style="ellipse;whiteSpace=wrap;html=1;" vertex="1" parent="1">
          <mxGeometry x="662.5" y="1150" width="190" height="70" as="geometry" />
        </mxCell>
        <mxCell id="5tHXkLdyoTB7gvG9HKrc-35" value="&lt;font style=&quot;font-size: 28px;&quot;&gt;personal data&lt;/font&gt;" style="ellipse;whiteSpace=wrap;html=1;" vertex="1" parent="1">
          <mxGeometry x="270" y="800.63" width="140" height="80" as="geometry" />
        </mxCell>
        <mxCell id="5tHXkLdyoTB7gvG9HKrc-36" value="&lt;span style=&quot;font-size: 28px;&quot;&gt;employee&lt;/span&gt;&lt;div&gt;&lt;span style=&quot;font-size: 28px;&quot;&gt;ID&lt;/span&gt;&lt;/div&gt;" style="ellipse;whiteSpace=wrap;html=1;" vertex="1" parent="1">
          <mxGeometry x="340" y="450" width="140" height="60" as="geometry" />
        </mxCell>
        <mxCell id="5tHXkLdyoTB7gvG9HKrc-37" value="&lt;span style=&quot;font-size: 28px;&quot;&gt;skiLiftCode&lt;/span&gt;" style="ellipse;whiteSpace=wrap;html=1;" vertex="1" parent="1">
          <mxGeometry x="525" y="435" width="160" height="56.25" as="geometry" />
        </mxCell>
        <mxCell id="5tHXkLdyoTB7gvG9HKrc-38" value="&lt;font style=&quot;font-size: 28px;&quot;&gt;date&lt;/font&gt;" style="ellipse;whiteSpace=wrap;html=1;" vertex="1" parent="1">
          <mxGeometry x="315" y="543.13" width="80" height="40" as="geometry" />
        </mxCell>
        <mxCell id="5tHXkLdyoTB7gvG9HKrc-39" value="&lt;font style=&quot;font-size: 28px;&quot;&gt;work done&lt;/font&gt;" style="ellipse;whiteSpace=wrap;html=1;" vertex="1" parent="1">
          <mxGeometry x="395" y="613.13" width="105" height="60" as="geometry" />
        </mxCell>
        <mxCell id="5tHXkLdyoTB7gvG9HKrc-40" value="&lt;span style=&quot;font-size: 28px;&quot;&gt;employee&lt;/span&gt;&lt;div&gt;&lt;span style=&quot;font-size: 28px;&quot;&gt;ID&lt;/span&gt;&lt;/div&gt;" style="ellipse;whiteSpace=wrap;html=1;" vertex="1" parent="1">
          <mxGeometry x="1030" y="685" width="140" height="80" as="geometry" />
        </mxCell>
        <mxCell id="5tHXkLdyoTB7gvG9HKrc-41" value="&lt;span style=&quot;font-size: 28px;&quot;&gt;skiSlopCode&lt;/span&gt;" style="ellipse;whiteSpace=wrap;html=1;" vertex="1" parent="1">
          <mxGeometry x="936.25" y="901" width="170" height="92.5" as="geometry" />
        </mxCell>
        <mxCell id="5tHXkLdyoTB7gvG9HKrc-42" value="&lt;font style=&quot;font-size: 28px;&quot;&gt;date&lt;/font&gt;" style="ellipse;whiteSpace=wrap;html=1;" vertex="1" parent="1">
          <mxGeometry x="870" y="715" width="105" height="70" as="geometry" />
        </mxCell>
        <mxCell id="5tHXkLdyoTB7gvG9HKrc-43" value="&lt;font style=&quot;font-size: 28px;&quot;&gt;&lt;u&gt;CIF&lt;/u&gt;&lt;/font&gt;" style="ellipse;whiteSpace=wrap;html=1;" vertex="1" parent="1">
          <mxGeometry x="2130" y="355" width="105" height="70" as="geometry" />
        </mxCell>
        <mxCell id="5tHXkLdyoTB7gvG9HKrc-44" value="&lt;font style=&quot;font-size: 28px;&quot;&gt;name&lt;/font&gt;" style="ellipse;whiteSpace=wrap;html=1;" vertex="1" parent="1">
          <mxGeometry x="1926.25" y="245.13" width="95" height="60" as="geometry" />
        </mxCell>
        <mxCell id="5tHXkLdyoTB7gvG9HKrc-46" value="&lt;font style=&quot;font-size: 28px;&quot;&gt;isOpen&lt;/font&gt;" style="ellipse;whiteSpace=wrap;html=1;" vertex="1" parent="1">
          <mxGeometry x="2170" y="910" width="130" height="70" as="geometry" />
        </mxCell>
        <mxCell id="5tHXkLdyoTB7gvG9HKrc-47" value="&lt;font style=&quot;font-size: 28px;&quot;&gt;snow type&lt;/font&gt;" style="ellipse;whiteSpace=wrap;html=1;" vertex="1" parent="1">
          <mxGeometry x="2061.25" y="685" width="130" height="70" as="geometry" />
        </mxCell>
        <mxCell id="5tHXkLdyoTB7gvG9HKrc-48" value="&lt;font style=&quot;font-size: 28px;&quot;&gt;time&lt;/font&gt;" style="ellipse;whiteSpace=wrap;html=1;" vertex="1" parent="1">
          <mxGeometry x="2220" y="746.25" width="80" height="43.75" as="geometry" />
        </mxCell>
        <mxCell id="5tHXkLdyoTB7gvG9HKrc-49" value="&lt;font style=&quot;font-size: 28px;&quot;&gt;&lt;u&gt;code&lt;/u&gt;&lt;/font&gt;" style="ellipse;whiteSpace=wrap;html=1;" vertex="1" parent="1">
          <mxGeometry x="2017.5" y="910" width="105" height="70" as="geometry" />
        </mxCell>
        <mxCell id="5tHXkLdyoTB7gvG9HKrc-50" value="" style="endArrow=none;html=1;rounded=0;exitX=0.992;exitY=0.843;exitDx=0;exitDy=0;exitPerimeter=0;" edge="1" parent="1" source="5tHXkLdyoTB7gvG9HKrc-1">
          <mxGeometry width="50" height="50" relative="1" as="geometry">
            <mxPoint x="1661.25" y="387.5" as="sourcePoint" />
            <mxPoint x="1661.25" y="390.5" as="targetPoint" />
          </mxGeometry>
        </mxCell>
        <mxCell id="5tHXkLdyoTB7gvG9HKrc-51" value="&lt;font style=&quot;font-size: 31px;&quot;&gt;install&lt;/font&gt;" style="rhombus;whiteSpace=wrap;html=1;" vertex="1" parent="1">
          <mxGeometry x="1661.25" y="345" width="170" height="90" as="geometry" />
        </mxCell>
        <mxCell id="5tHXkLdyoTB7gvG9HKrc-52" value="" style="endArrow=none;html=1;rounded=0;entryX=0;entryY=0.5;entryDx=0;entryDy=0;exitX=1;exitY=0.5;exitDx=0;exitDy=0;" edge="1" parent="1" source="5tHXkLdyoTB7gvG9HKrc-51" target="5tHXkLdyoTB7gvG9HKrc-16">
          <mxGeometry width="50" height="50" relative="1" as="geometry">
            <mxPoint x="1661.25" y="377.5" as="sourcePoint" />
            <mxPoint x="1711.25" y="327.5" as="targetPoint" />
          </mxGeometry>
        </mxCell>
        <mxCell id="5tHXkLdyoTB7gvG9HKrc-53" value="&lt;font style=&quot;font-size: 20px;&quot;&gt;n&lt;/font&gt;" style="text;html=1;align=center;verticalAlign=middle;whiteSpace=wrap;rounded=0;" vertex="1" parent="1">
          <mxGeometry x="1516.25" y="355" width="40" height="30" as="geometry" />
        </mxCell>
        <mxCell id="5tHXkLdyoTB7gvG9HKrc-54" value="&lt;span style=&quot;font-size: 20px;&quot;&gt;1&lt;/span&gt;" style="text;html=1;align=center;verticalAlign=middle;whiteSpace=wrap;rounded=0;" vertex="1" parent="1">
          <mxGeometry x="1871.25" y="360" width="40" height="30" as="geometry" />
        </mxCell>
        <mxCell id="5tHXkLdyoTB7gvG9HKrc-55" value="&lt;font style=&quot;font-size: 31px;&quot;&gt;can be&lt;/font&gt;" style="rhombus;whiteSpace=wrap;html=1;" vertex="1" parent="1">
          <mxGeometry x="990" y="199.5" width="140" height="83" as="geometry" />
        </mxCell>
        <mxCell id="5tHXkLdyoTB7gvG9HKrc-56" value="" style="endArrow=none;html=1;rounded=0;exitX=1;exitY=0.5;exitDx=0;exitDy=0;entryX=0;entryY=0.5;entryDx=0;entryDy=0;" edge="1" parent="1" source="5tHXkLdyoTB7gvG9HKrc-6" target="5tHXkLdyoTB7gvG9HKrc-55">
          <mxGeometry width="50" height="50" relative="1" as="geometry">
            <mxPoint x="1120" y="252" as="sourcePoint" />
            <mxPoint x="1170" y="202" as="targetPoint" />
          </mxGeometry>
        </mxCell>
        <mxCell id="5tHXkLdyoTB7gvG9HKrc-57" value="" style="endArrow=none;html=1;rounded=0;exitX=1;exitY=0.5;exitDx=0;exitDy=0;entryX=0;entryY=0.25;entryDx=0;entryDy=0;" edge="1" parent="1" source="5tHXkLdyoTB7gvG9HKrc-55" target="5tHXkLdyoTB7gvG9HKrc-1">
          <mxGeometry width="50" height="50" relative="1" as="geometry">
            <mxPoint x="1071.25" y="405.5" as="sourcePoint" />
            <mxPoint x="1161.25" y="406.5" as="targetPoint" />
          </mxGeometry>
        </mxCell>
        <mxCell id="5tHXkLdyoTB7gvG9HKrc-58" value="&lt;span style=&quot;font-size: 20px;&quot;&gt;1&lt;/span&gt;" style="text;html=1;align=center;verticalAlign=middle;whiteSpace=wrap;rounded=0;" vertex="1" parent="1">
          <mxGeometry x="840" y="213.88" width="40" height="30" as="geometry" />
        </mxCell>
        <mxCell id="5tHXkLdyoTB7gvG9HKrc-59" value="&lt;span style=&quot;font-size: 20px;&quot;&gt;1&lt;/span&gt;" style="text;html=1;align=center;verticalAlign=middle;whiteSpace=wrap;rounded=0;" vertex="1" parent="1">
          <mxGeometry x="1336.25" y="314.5" width="40" height="30" as="geometry" />
        </mxCell>
        <mxCell id="5tHXkLdyoTB7gvG9HKrc-60" value="&lt;font style=&quot;font-size: 31px;&quot;&gt;access&lt;/font&gt;" style="rhombus;whiteSpace=wrap;html=1;" vertex="1" parent="1">
          <mxGeometry x="1376.25" y="457.5" width="140" height="83" as="geometry" />
        </mxCell>
        <mxCell id="5tHXkLdyoTB7gvG9HKrc-61" value="" style="endArrow=none;html=1;rounded=0;entryX=0.5;entryY=1;entryDx=0;entryDy=0;exitX=0.5;exitY=0;exitDx=0;exitDy=0;" edge="1" parent="1" source="5tHXkLdyoTB7gvG9HKrc-13" target="5tHXkLdyoTB7gvG9HKrc-60">
          <mxGeometry width="50" height="50" relative="1" as="geometry">
            <mxPoint x="1447.5" y="827.5" as="sourcePoint" />
            <mxPoint x="1497.5" y="777.5" as="targetPoint" />
          </mxGeometry>
        </mxCell>
        <mxCell id="5tHXkLdyoTB7gvG9HKrc-63" value="" style="endArrow=none;html=1;rounded=0;entryX=0.5;entryY=1;entryDx=0;entryDy=0;exitX=0.5;exitY=0;exitDx=0;exitDy=0;" edge="1" parent="1" source="5tHXkLdyoTB7gvG9HKrc-60" target="5tHXkLdyoTB7gvG9HKrc-1">
          <mxGeometry width="50" height="50" relative="1" as="geometry">
            <mxPoint x="1456.25" y="607.5" as="sourcePoint" />
            <mxPoint x="1456.25" y="550.5" as="targetPoint" />
          </mxGeometry>
        </mxCell>
        <mxCell id="5tHXkLdyoTB7gvG9HKrc-64" value="&lt;font style=&quot;font-size: 31px;&quot;&gt;belong&lt;/font&gt;" style="rhombus;whiteSpace=wrap;html=1;" vertex="1" parent="1">
          <mxGeometry x="500" y="202.38" width="140" height="83" as="geometry" />
        </mxCell>
        <mxCell id="5tHXkLdyoTB7gvG9HKrc-65" value="" style="endArrow=none;html=1;rounded=0;exitX=1;exitY=0.5;exitDx=0;exitDy=0;" edge="1" parent="1" source="5tHXkLdyoTB7gvG9HKrc-64">
          <mxGeometry width="50" height="50" relative="1" as="geometry">
            <mxPoint x="720" y="293.88" as="sourcePoint" />
            <mxPoint x="690" y="243.88" as="targetPoint" />
          </mxGeometry>
        </mxCell>
        <mxCell id="5tHXkLdyoTB7gvG9HKrc-66" value="" style="endArrow=none;html=1;rounded=0;exitX=1;exitY=0.5;exitDx=0;exitDy=0;" edge="1" parent="1" source="5tHXkLdyoTB7gvG9HKrc-12">
          <mxGeometry width="50" height="50" relative="1" as="geometry">
            <mxPoint x="720" y="293.88" as="sourcePoint" />
            <mxPoint x="500" y="243.88" as="targetPoint" />
          </mxGeometry>
        </mxCell>
        <mxCell id="5tHXkLdyoTB7gvG9HKrc-67" value="&lt;span style=&quot;font-size: 20px;&quot;&gt;1&lt;/span&gt;" style="text;html=1;align=center;verticalAlign=middle;whiteSpace=wrap;rounded=0;" vertex="1" parent="1">
          <mxGeometry x="380" y="217.88" width="40" height="30" as="geometry" />
        </mxCell>
        <mxCell id="5tHXkLdyoTB7gvG9HKrc-68" value="&lt;span style=&quot;font-size: 20px;&quot;&gt;n&lt;/span&gt;" style="text;html=1;align=center;verticalAlign=middle;whiteSpace=wrap;rounded=0;" vertex="1" parent="1">
          <mxGeometry x="660" y="218.88" width="40" height="30" as="geometry" />
        </mxCell>
        <mxCell id="5tHXkLdyoTB7gvG9HKrc-69" value="&lt;font style=&quot;font-size: 31px;&quot;&gt;has&lt;/font&gt;" style="rhombus;whiteSpace=wrap;html=1;" vertex="1" parent="1">
          <mxGeometry x="1387.5" y="1100" width="140" height="83" as="geometry" />
        </mxCell>
        <mxCell id="5tHXkLdyoTB7gvG9HKrc-70" value="" style="endArrow=none;html=1;rounded=0;exitX=0.5;exitY=1;exitDx=0;exitDy=0;entryX=0.5;entryY=0;entryDx=0;entryDy=0;" edge="1" parent="1" source="5tHXkLdyoTB7gvG9HKrc-13" target="5tHXkLdyoTB7gvG9HKrc-69">
          <mxGeometry width="50" height="50" relative="1" as="geometry">
            <mxPoint x="1488.5" y="857.5" as="sourcePoint" />
            <mxPoint x="1453.5" y="947.5" as="targetPoint" />
          </mxGeometry>
        </mxCell>
        <mxCell id="5tHXkLdyoTB7gvG9HKrc-71" value="" style="endArrow=none;html=1;rounded=0;exitX=0.5;exitY=1;exitDx=0;exitDy=0;entryX=0.5;entryY=0;entryDx=0;entryDy=0;" edge="1" parent="1" source="5tHXkLdyoTB7gvG9HKrc-69" target="5tHXkLdyoTB7gvG9HKrc-14">
          <mxGeometry width="50" height="50" relative="1" as="geometry">
            <mxPoint x="1492.5" y="1010" as="sourcePoint" />
            <mxPoint x="1542.5" y="960" as="targetPoint" />
          </mxGeometry>
        </mxCell>
        <mxCell id="5tHXkLdyoTB7gvG9HKrc-72" value="&lt;span style=&quot;font-size: 20px;&quot;&gt;1&lt;/span&gt;" style="text;html=1;align=center;verticalAlign=middle;whiteSpace=wrap;rounded=0;" vertex="1" parent="1">
          <mxGeometry x="1411.25" y="405" width="40" height="30" as="geometry" />
        </mxCell>
        <mxCell id="5tHXkLdyoTB7gvG9HKrc-73" value="&lt;font style=&quot;font-size: 20px;&quot;&gt;n&lt;/font&gt;" style="text;html=1;align=center;verticalAlign=middle;whiteSpace=wrap;rounded=0;" vertex="1" parent="1">
          <mxGeometry x="1418.5" y="777.5" width="40" height="30" as="geometry" />
        </mxCell>
        <mxCell id="5tHXkLdyoTB7gvG9HKrc-74" value="&lt;span style=&quot;font-size: 20px;&quot;&gt;1&lt;/span&gt;" style="text;html=1;align=center;verticalAlign=middle;whiteSpace=wrap;rounded=0;" vertex="1" parent="1">
          <mxGeometry x="1418.5" y="862.5" width="40" height="30" as="geometry" />
        </mxCell>
        <mxCell id="5tHXkLdyoTB7gvG9HKrc-75" value="&lt;font style=&quot;font-size: 20px;&quot;&gt;n&lt;/font&gt;" style="text;html=1;align=center;verticalAlign=middle;whiteSpace=wrap;rounded=0;" vertex="1" parent="1">
          <mxGeometry x="1422.5" y="1235" width="40" height="30" as="geometry" />
        </mxCell>
        <mxCell id="5tHXkLdyoTB7gvG9HKrc-76" value="&lt;font style=&quot;font-size: 31px;&quot;&gt;has&lt;/font&gt;" style="rhombus;whiteSpace=wrap;html=1;" vertex="1" parent="1">
          <mxGeometry x="1092.5" y="1246" width="140" height="83" as="geometry" />
        </mxCell>
        <mxCell id="5tHXkLdyoTB7gvG9HKrc-77" value="" style="endArrow=none;html=1;rounded=0;entryX=0;entryY=0.5;entryDx=0;entryDy=0;exitX=1;exitY=0.5;exitDx=0;exitDy=0;" edge="1" parent="1" source="5tHXkLdyoTB7gvG9HKrc-76" target="5tHXkLdyoTB7gvG9HKrc-14">
          <mxGeometry width="50" height="50" relative="1" as="geometry">
            <mxPoint x="1162.5" y="1240" as="sourcePoint" />
            <mxPoint x="1212.5" y="1190" as="targetPoint" />
          </mxGeometry>
        </mxCell>
        <mxCell id="5tHXkLdyoTB7gvG9HKrc-78" value="" style="endArrow=none;html=1;rounded=0;exitX=1;exitY=0.5;exitDx=0;exitDy=0;entryX=0;entryY=0.5;entryDx=0;entryDy=0;" edge="1" parent="1" source="5tHXkLdyoTB7gvG9HKrc-15" target="5tHXkLdyoTB7gvG9HKrc-76">
          <mxGeometry width="50" height="50" relative="1" as="geometry">
            <mxPoint x="962.5" y="1240" as="sourcePoint" />
            <mxPoint x="1012.5" y="1190" as="targetPoint" />
          </mxGeometry>
        </mxCell>
        <mxCell id="5tHXkLdyoTB7gvG9HKrc-79" value="&lt;span style=&quot;font-size: 20px;&quot;&gt;1&lt;/span&gt;" style="text;html=1;align=center;verticalAlign=middle;whiteSpace=wrap;rounded=0;" vertex="1" parent="1">
          <mxGeometry x="1332.5" y="1287.5" width="40" height="30" as="geometry" />
        </mxCell>
        <mxCell id="5tHXkLdyoTB7gvG9HKrc-80" value="&lt;font style=&quot;font-size: 20px;&quot;&gt;n&lt;/font&gt;" style="text;html=1;align=center;verticalAlign=middle;whiteSpace=wrap;rounded=0;" vertex="1" parent="1">
          <mxGeometry x="952.5" y="1285" width="40" height="30" as="geometry" />
        </mxCell>
        <mxCell id="5tHXkLdyoTB7gvG9HKrc-81" value="&lt;span style=&quot;font-size: 30px;&quot;&gt;Reason&lt;/span&gt;" style="rounded=0;whiteSpace=wrap;html=1;" vertex="1" parent="1">
          <mxGeometry x="315" y="1262.5" width="120" height="50" as="geometry" />
        </mxCell>
        <mxCell id="5tHXkLdyoTB7gvG9HKrc-82" value="&lt;font style=&quot;font-size: 31px;&quot;&gt;has&lt;/font&gt;" style="rhombus;whiteSpace=wrap;html=1;" vertex="1" parent="1">
          <mxGeometry x="545" y="1254.75" width="140" height="65.5" as="geometry" />
        </mxCell>
        <mxCell id="5tHXkLdyoTB7gvG9HKrc-83" value="" style="endArrow=none;html=1;rounded=0;exitX=0;exitY=0.5;exitDx=0;exitDy=0;entryX=1;entryY=0.5;entryDx=0;entryDy=0;" edge="1" parent="1" source="5tHXkLdyoTB7gvG9HKrc-15" target="5tHXkLdyoTB7gvG9HKrc-82">
          <mxGeometry width="50" height="50" relative="1" as="geometry">
            <mxPoint x="725" y="1282.5" as="sourcePoint" />
            <mxPoint x="775" y="1232.5" as="targetPoint" />
          </mxGeometry>
        </mxCell>
        <mxCell id="5tHXkLdyoTB7gvG9HKrc-84" value="" style="endArrow=none;html=1;rounded=0;exitX=0;exitY=0.5;exitDx=0;exitDy=0;entryX=1;entryY=0.5;entryDx=0;entryDy=0;" edge="1" parent="1" source="5tHXkLdyoTB7gvG9HKrc-82" target="5tHXkLdyoTB7gvG9HKrc-81">
          <mxGeometry width="50" height="50" relative="1" as="geometry">
            <mxPoint x="725" y="1282.5" as="sourcePoint" />
            <mxPoint x="775" y="1232.5" as="targetPoint" />
          </mxGeometry>
        </mxCell>
        <mxCell id="5tHXkLdyoTB7gvG9HKrc-85" value="&lt;span style=&quot;font-size: 28px;&quot;&gt;&lt;u&gt;code&lt;/u&gt;&lt;/span&gt;" style="ellipse;whiteSpace=wrap;html=1;" vertex="1" parent="1">
          <mxGeometry x="255" y="1365" width="100" height="40" as="geometry" />
        </mxCell>
        <mxCell id="5tHXkLdyoTB7gvG9HKrc-86" value="&lt;span style=&quot;font-size: 28px;&quot;&gt;description&lt;/span&gt;" style="ellipse;whiteSpace=wrap;html=1;" vertex="1" parent="1">
          <mxGeometry x="145" y="1262.5" width="140" height="62.25" as="geometry" />
        </mxCell>
        <mxCell id="5tHXkLdyoTB7gvG9HKrc-87" value="&lt;span style=&quot;font-size: 28px;&quot;&gt;casualOrder&lt;/span&gt;" style="ellipse;whiteSpace=wrap;html=1;" vertex="1" parent="1">
          <mxGeometry x="212.5" y="1172.5" width="170" height="67.5" as="geometry" />
        </mxCell>
        <mxCell id="5tHXkLdyoTB7gvG9HKrc-88" value="&lt;font style=&quot;font-size: 20px;&quot;&gt;n&lt;/font&gt;" style="text;html=1;align=center;verticalAlign=middle;whiteSpace=wrap;rounded=0;" vertex="1" parent="1">
          <mxGeometry x="775" y="1262.5" width="40" height="30" as="geometry" />
        </mxCell>
        <mxCell id="5tHXkLdyoTB7gvG9HKrc-89" value="&lt;font style=&quot;font-size: 20px;&quot;&gt;1&lt;/font&gt;" style="text;html=1;align=center;verticalAlign=middle;whiteSpace=wrap;rounded=0;" vertex="1" parent="1">
          <mxGeometry x="427.5" y="1257.5" width="40" height="30" as="geometry" />
        </mxCell>
        <mxCell id="5tHXkLdyoTB7gvG9HKrc-91" value="&lt;font style=&quot;font-size: 31px;&quot;&gt;has&lt;/font&gt;" style="rhombus;whiteSpace=wrap;html=1;" vertex="1" parent="1">
          <mxGeometry x="1757.5" y="807.5" width="112.5" height="52.5" as="geometry" />
        </mxCell>
        <mxCell id="5tHXkLdyoTB7gvG9HKrc-92" value="" style="endArrow=none;html=1;rounded=0;exitX=1;exitY=0.5;exitDx=0;exitDy=0;entryX=0;entryY=0.5;entryDx=0;entryDy=0;" edge="1" parent="1" source="5tHXkLdyoTB7gvG9HKrc-13" target="5tHXkLdyoTB7gvG9HKrc-91">
          <mxGeometry width="50" height="50" relative="1" as="geometry">
            <mxPoint x="1660" y="860" as="sourcePoint" />
            <mxPoint x="1710" y="810" as="targetPoint" />
          </mxGeometry>
        </mxCell>
        <mxCell id="5tHXkLdyoTB7gvG9HKrc-93" value="" style="endArrow=none;html=1;rounded=0;entryX=0;entryY=0.5;entryDx=0;entryDy=0;exitX=1;exitY=0.5;exitDx=0;exitDy=0;" edge="1" parent="1" source="5tHXkLdyoTB7gvG9HKrc-91" target="5tHXkLdyoTB7gvG9HKrc-17">
          <mxGeometry width="50" height="50" relative="1" as="geometry">
            <mxPoint x="1657.5" y="827.5" as="sourcePoint" />
            <mxPoint x="1707.5" y="777.5" as="targetPoint" />
          </mxGeometry>
        </mxCell>
        <mxCell id="5tHXkLdyoTB7gvG9HKrc-94" value="&lt;span style=&quot;font-size: 20px;&quot;&gt;1&lt;/span&gt;" style="text;html=1;align=center;verticalAlign=middle;whiteSpace=wrap;rounded=0;" vertex="1" parent="1">
          <mxGeometry x="1518.5" y="807.5" width="40" height="30" as="geometry" />
        </mxCell>
        <mxCell id="5tHXkLdyoTB7gvG9HKrc-95" value="&lt;font style=&quot;font-size: 20px;&quot;&gt;n&lt;/font&gt;" style="text;html=1;align=center;verticalAlign=middle;whiteSpace=wrap;rounded=0;" vertex="1" parent="1">
          <mxGeometry x="2017.5" y="807.5" width="40" height="30" as="geometry" />
        </mxCell>
        <mxCell id="5tHXkLdyoTB7gvG9HKrc-97" value="&lt;font style=&quot;font-size: 31px;&quot;&gt;manage&lt;/font&gt;" style="rhombus;whiteSpace=wrap;html=1;" vertex="1" parent="1">
          <mxGeometry x="1150" y="810" width="180" height="53.75" as="geometry" />
        </mxCell>
        <mxCell id="5tHXkLdyoTB7gvG9HKrc-98" value="" style="endArrow=none;html=1;rounded=0;entryX=0;entryY=0.5;entryDx=0;entryDy=0;exitX=1;exitY=0.5;exitDx=0;exitDy=0;" edge="1" parent="1" source="5tHXkLdyoTB7gvG9HKrc-97" target="5tHXkLdyoTB7gvG9HKrc-13">
          <mxGeometry width="50" height="50" relative="1" as="geometry">
            <mxPoint x="1250" y="960" as="sourcePoint" />
            <mxPoint x="1300" y="910" as="targetPoint" />
          </mxGeometry>
        </mxCell>
        <mxCell id="5tHXkLdyoTB7gvG9HKrc-99" value="" style="endArrow=none;html=1;rounded=0;exitX=1;exitY=0.5;exitDx=0;exitDy=0;entryX=0;entryY=0.5;entryDx=0;entryDy=0;" edge="1" parent="1" source="5tHXkLdyoTB7gvG9HKrc-20" target="5tHXkLdyoTB7gvG9HKrc-97">
          <mxGeometry width="50" height="50" relative="1" as="geometry">
            <mxPoint x="1250" y="960" as="sourcePoint" />
            <mxPoint x="1300" y="910" as="targetPoint" />
          </mxGeometry>
        </mxCell>
        <mxCell id="5tHXkLdyoTB7gvG9HKrc-100" value="&lt;span style=&quot;font-size: 20px;&quot;&gt;1&lt;/span&gt;" style="text;html=1;align=center;verticalAlign=middle;whiteSpace=wrap;rounded=0;" vertex="1" parent="1">
          <mxGeometry x="1320" y="807.5" width="40" height="30" as="geometry" />
        </mxCell>
        <mxCell id="5tHXkLdyoTB7gvG9HKrc-101" value="&lt;span style=&quot;font-size: 20px;&quot;&gt;1&lt;/span&gt;" style="text;html=1;align=center;verticalAlign=middle;whiteSpace=wrap;rounded=0;" vertex="1" parent="1">
          <mxGeometry x="1121.25" y="810" width="40" height="30" as="geometry" />
        </mxCell>
        <mxCell id="5tHXkLdyoTB7gvG9HKrc-102" value="&lt;font style=&quot;font-size: 31px;&quot;&gt;manage&lt;/font&gt;" style="rhombus;whiteSpace=wrap;html=1;" vertex="1" parent="1">
          <mxGeometry x="962.5" y="526.25" width="180" height="53.75" as="geometry" />
        </mxCell>
        <mxCell id="5tHXkLdyoTB7gvG9HKrc-103" value="" style="endArrow=none;html=1;rounded=0;exitX=1;exitY=0.5;exitDx=0;exitDy=0;entryX=0;entryY=0.5;entryDx=0;entryDy=0;" edge="1" parent="1" source="5tHXkLdyoTB7gvG9HKrc-19" target="5tHXkLdyoTB7gvG9HKrc-102">
          <mxGeometry width="50" height="50" relative="1" as="geometry">
            <mxPoint x="1030" y="660" as="sourcePoint" />
            <mxPoint x="1080" y="610" as="targetPoint" />
          </mxGeometry>
        </mxCell>
        <mxCell id="5tHXkLdyoTB7gvG9HKrc-104" value="" style="endArrow=none;html=1;rounded=0;entryX=0;entryY=0.75;entryDx=0;entryDy=0;exitX=1;exitY=0.5;exitDx=0;exitDy=0;" edge="1" parent="1" source="5tHXkLdyoTB7gvG9HKrc-102" target="5tHXkLdyoTB7gvG9HKrc-1">
          <mxGeometry width="50" height="50" relative="1" as="geometry">
            <mxPoint x="1030" y="660" as="sourcePoint" />
            <mxPoint x="1330" y="430" as="targetPoint" />
          </mxGeometry>
        </mxCell>
        <mxCell id="5tHXkLdyoTB7gvG9HKrc-105" value="&lt;span style=&quot;font-size: 20px;&quot;&gt;1&lt;/span&gt;" style="text;html=1;align=center;verticalAlign=middle;whiteSpace=wrap;rounded=0;" vertex="1" parent="1">
          <mxGeometry x="1303.75" y="385" width="40" height="30" as="geometry" />
        </mxCell>
        <mxCell id="5tHXkLdyoTB7gvG9HKrc-106" value="&lt;span style=&quot;font-size: 20px;&quot;&gt;n&lt;/span&gt;" style="text;html=1;align=center;verticalAlign=middle;whiteSpace=wrap;rounded=0;" vertex="1" parent="1">
          <mxGeometry x="650" y="523.13" width="40" height="30" as="geometry" />
        </mxCell>
        <mxCell id="5tHXkLdyoTB7gvG9HKrc-107" value="&lt;font style=&quot;font-size: 31px;&quot;&gt;manage&lt;/font&gt;" style="rhombus;whiteSpace=wrap;html=1;" vertex="1" parent="1">
          <mxGeometry x="690" y="813.75" width="180" height="53.75" as="geometry" />
        </mxCell>
        <mxCell id="5tHXkLdyoTB7gvG9HKrc-108" value="" style="endArrow=none;html=1;rounded=0;exitX=1;exitY=0.5;exitDx=0;exitDy=0;entryX=0;entryY=0.5;entryDx=0;entryDy=0;" edge="1" parent="1" source="5tHXkLdyoTB7gvG9HKrc-18" target="5tHXkLdyoTB7gvG9HKrc-107">
          <mxGeometry width="50" height="50" relative="1" as="geometry">
            <mxPoint x="1070" y="550" as="sourcePoint" />
            <mxPoint x="1120" y="500" as="targetPoint" />
          </mxGeometry>
        </mxCell>
        <mxCell id="5tHXkLdyoTB7gvG9HKrc-109" value="" style="endArrow=none;html=1;rounded=0;exitX=1;exitY=0.5;exitDx=0;exitDy=0;entryX=0;entryY=0.5;entryDx=0;entryDy=0;" edge="1" parent="1" source="5tHXkLdyoTB7gvG9HKrc-107" target="5tHXkLdyoTB7gvG9HKrc-20">
          <mxGeometry width="50" height="50" relative="1" as="geometry">
            <mxPoint x="1070" y="550" as="sourcePoint" />
            <mxPoint x="1120" y="500" as="targetPoint" />
          </mxGeometry>
        </mxCell>
        <mxCell id="5tHXkLdyoTB7gvG9HKrc-110" value="&lt;font style=&quot;font-size: 31px;&quot;&gt;be&lt;/font&gt;" style="rhombus;whiteSpace=wrap;html=1;" vertex="1" parent="1">
          <mxGeometry x="510" y="685" width="100" height="30" as="geometry" />
        </mxCell>
        <mxCell id="5tHXkLdyoTB7gvG9HKrc-111" value="" style="endArrow=none;html=1;rounded=0;exitX=0.5;exitY=0;exitDx=0;exitDy=0;entryX=0.5;entryY=1;entryDx=0;entryDy=0;" edge="1" parent="1" source="5tHXkLdyoTB7gvG9HKrc-110" target="5tHXkLdyoTB7gvG9HKrc-19">
          <mxGeometry width="50" height="50" relative="1" as="geometry">
            <mxPoint x="1080" y="550" as="sourcePoint" />
            <mxPoint x="1130" y="500" as="targetPoint" />
          </mxGeometry>
        </mxCell>
        <mxCell id="5tHXkLdyoTB7gvG9HKrc-112" value="" style="endArrow=none;html=1;rounded=0;entryX=0.5;entryY=1;entryDx=0;entryDy=0;exitX=0.5;exitY=0;exitDx=0;exitDy=0;" edge="1" parent="1" source="5tHXkLdyoTB7gvG9HKrc-18" target="5tHXkLdyoTB7gvG9HKrc-110">
          <mxGeometry width="50" height="50" relative="1" as="geometry">
            <mxPoint x="560" y="810" as="sourcePoint" />
            <mxPoint x="710" y="650" as="targetPoint" />
          </mxGeometry>
        </mxCell>
        <mxCell id="5tHXkLdyoTB7gvG9HKrc-113" value="&lt;span style=&quot;font-size: 20px;&quot;&gt;1&lt;/span&gt;" style="text;html=1;align=center;verticalAlign=middle;whiteSpace=wrap;rounded=0;" vertex="1" parent="1">
          <mxGeometry x="550" y="780.62" width="40" height="30" as="geometry" />
        </mxCell>
        <mxCell id="5tHXkLdyoTB7gvG9HKrc-114" value="&lt;span style=&quot;font-size: 20px;&quot;&gt;n&lt;/span&gt;" style="text;html=1;align=center;verticalAlign=middle;whiteSpace=wrap;rounded=0;" vertex="1" parent="1">
          <mxGeometry x="550" y="583.13" width="40" height="30" as="geometry" />
        </mxCell>
        <mxCell id="5tHXkLdyoTB7gvG9HKrc-115" value="" style="endArrow=none;html=1;rounded=0;entryX=0.708;entryY=0.967;entryDx=0;entryDy=0;entryPerimeter=0;exitX=0.5;exitY=0;exitDx=0;exitDy=0;" edge="1" parent="1" source="5tHXkLdyoTB7gvG9HKrc-81" target="5tHXkLdyoTB7gvG9HKrc-87">
          <mxGeometry width="50" height="50" relative="1" as="geometry">
            <mxPoint x="310" y="1300" as="sourcePoint" />
            <mxPoint x="360" y="1250" as="targetPoint" />
          </mxGeometry>
        </mxCell>
        <mxCell id="5tHXkLdyoTB7gvG9HKrc-116" value="" style="endArrow=none;html=1;rounded=0;exitX=1;exitY=0.5;exitDx=0;exitDy=0;entryX=0.001;entryY=0.598;entryDx=0;entryDy=0;entryPerimeter=0;" edge="1" parent="1" source="5tHXkLdyoTB7gvG9HKrc-86" target="5tHXkLdyoTB7gvG9HKrc-81">
          <mxGeometry width="50" height="50" relative="1" as="geometry">
            <mxPoint x="310" y="1300" as="sourcePoint" />
            <mxPoint x="360" y="1250" as="targetPoint" />
          </mxGeometry>
        </mxCell>
        <mxCell id="5tHXkLdyoTB7gvG9HKrc-117" value="" style="endArrow=none;html=1;rounded=0;exitX=0.42;exitY=0.996;exitDx=0;exitDy=0;exitPerimeter=0;entryX=0.5;entryY=0;entryDx=0;entryDy=0;" edge="1" parent="1" source="5tHXkLdyoTB7gvG9HKrc-81" target="5tHXkLdyoTB7gvG9HKrc-85">
          <mxGeometry width="50" height="50" relative="1" as="geometry">
            <mxPoint x="310" y="1300" as="sourcePoint" />
            <mxPoint x="360" y="1250" as="targetPoint" />
          </mxGeometry>
        </mxCell>
        <mxCell id="5tHXkLdyoTB7gvG9HKrc-118" value="" style="endArrow=none;html=1;rounded=0;exitX=0.605;exitY=1.026;exitDx=0;exitDy=0;exitPerimeter=0;" edge="1" parent="1" source="5tHXkLdyoTB7gvG9HKrc-34" target="5tHXkLdyoTB7gvG9HKrc-15">
          <mxGeometry width="50" height="50" relative="1" as="geometry">
            <mxPoint x="870" y="1310" as="sourcePoint" />
            <mxPoint x="920" y="1260" as="targetPoint" />
          </mxGeometry>
        </mxCell>
        <mxCell id="5tHXkLdyoTB7gvG9HKrc-119" value="" style="endArrow=none;html=1;rounded=0;entryX=0.473;entryY=1.023;entryDx=0;entryDy=0;entryPerimeter=0;exitX=0.602;exitY=0.013;exitDx=0;exitDy=0;exitPerimeter=0;" edge="1" parent="1" source="5tHXkLdyoTB7gvG9HKrc-15" target="5tHXkLdyoTB7gvG9HKrc-31">
          <mxGeometry width="50" height="50" relative="1" as="geometry">
            <mxPoint x="870" y="1310" as="sourcePoint" />
            <mxPoint x="960" y="1220" as="targetPoint" />
          </mxGeometry>
        </mxCell>
        <mxCell id="5tHXkLdyoTB7gvG9HKrc-120" value="" style="endArrow=none;html=1;rounded=0;exitX=0.783;exitY=0.072;exitDx=0;exitDy=0;exitPerimeter=0;entryX=0.327;entryY=1.029;entryDx=0;entryDy=0;entryPerimeter=0;" edge="1" parent="1" source="5tHXkLdyoTB7gvG9HKrc-32" target="5tHXkLdyoTB7gvG9HKrc-15">
          <mxGeometry width="50" height="50" relative="1" as="geometry">
            <mxPoint x="870" y="1310" as="sourcePoint" />
            <mxPoint x="920" y="1260" as="targetPoint" />
          </mxGeometry>
        </mxCell>
        <mxCell id="5tHXkLdyoTB7gvG9HKrc-121" value="" style="endArrow=none;html=1;rounded=0;exitX=0.436;exitY=0.003;exitDx=0;exitDy=0;exitPerimeter=0;entryX=0.75;entryY=1;entryDx=0;entryDy=0;" edge="1" parent="1" source="5tHXkLdyoTB7gvG9HKrc-33" target="5tHXkLdyoTB7gvG9HKrc-15">
          <mxGeometry width="50" height="50" relative="1" as="geometry">
            <mxPoint x="870" y="1310" as="sourcePoint" />
            <mxPoint x="920" y="1260" as="targetPoint" />
          </mxGeometry>
        </mxCell>
        <mxCell id="5tHXkLdyoTB7gvG9HKrc-122" value="" style="endArrow=none;html=1;rounded=0;entryX=0.02;entryY=0.643;entryDx=0;entryDy=0;entryPerimeter=0;exitX=0.834;exitY=0.015;exitDx=0;exitDy=0;exitPerimeter=0;" edge="1" parent="1" source="5tHXkLdyoTB7gvG9HKrc-14" target="5tHXkLdyoTB7gvG9HKrc-30">
          <mxGeometry width="50" height="50" relative="1" as="geometry">
            <mxPoint x="1470" y="1250" as="sourcePoint" />
            <mxPoint x="1520" y="1200" as="targetPoint" />
          </mxGeometry>
        </mxCell>
        <mxCell id="5tHXkLdyoTB7gvG9HKrc-123" value="" style="endArrow=none;html=1;rounded=0;exitX=1;exitY=1;exitDx=0;exitDy=0;entryX=0.228;entryY=0.015;entryDx=0;entryDy=0;entryPerimeter=0;" edge="1" parent="1" source="5tHXkLdyoTB7gvG9HKrc-29" target="5tHXkLdyoTB7gvG9HKrc-14">
          <mxGeometry width="50" height="50" relative="1" as="geometry">
            <mxPoint x="1470" y="1250" as="sourcePoint" />
            <mxPoint x="1520" y="1200" as="targetPoint" />
          </mxGeometry>
        </mxCell>
        <mxCell id="5tHXkLdyoTB7gvG9HKrc-124" value="" style="endArrow=none;html=1;rounded=0;exitX=0.65;exitY=0.036;exitDx=0;exitDy=0;exitPerimeter=0;entryX=0.335;entryY=1.07;entryDx=0;entryDy=0;entryPerimeter=0;" edge="1" parent="1" source="5tHXkLdyoTB7gvG9HKrc-27" target="5tHXkLdyoTB7gvG9HKrc-14">
          <mxGeometry width="50" height="50" relative="1" as="geometry">
            <mxPoint x="1470" y="1250" as="sourcePoint" />
            <mxPoint x="1520" y="1200" as="targetPoint" />
          </mxGeometry>
        </mxCell>
        <mxCell id="5tHXkLdyoTB7gvG9HKrc-125" value="" style="endArrow=none;html=1;rounded=0;exitX=0.75;exitY=1;exitDx=0;exitDy=0;" edge="1" parent="1" source="5tHXkLdyoTB7gvG9HKrc-14" target="5tHXkLdyoTB7gvG9HKrc-28">
          <mxGeometry width="50" height="50" relative="1" as="geometry">
            <mxPoint x="1470" y="1250" as="sourcePoint" />
            <mxPoint x="1520" y="1200" as="targetPoint" />
          </mxGeometry>
        </mxCell>
        <mxCell id="5tHXkLdyoTB7gvG9HKrc-126" value="" style="endArrow=none;html=1;rounded=0;entryX=0.397;entryY=0.986;entryDx=0;entryDy=0;entryPerimeter=0;exitX=0.301;exitY=0.042;exitDx=0;exitDy=0;exitPerimeter=0;" edge="1" parent="1" source="5tHXkLdyoTB7gvG9HKrc-17" target="5tHXkLdyoTB7gvG9HKrc-47">
          <mxGeometry width="50" height="50" relative="1" as="geometry">
            <mxPoint x="2170" y="810" as="sourcePoint" />
            <mxPoint x="2220" y="760" as="targetPoint" />
          </mxGeometry>
        </mxCell>
        <mxCell id="5tHXkLdyoTB7gvG9HKrc-127" value="" style="endArrow=none;html=1;rounded=0;entryX=0;entryY=1;entryDx=0;entryDy=0;exitX=0.789;exitY=0.019;exitDx=0;exitDy=0;exitPerimeter=0;" edge="1" parent="1" source="5tHXkLdyoTB7gvG9HKrc-17" target="5tHXkLdyoTB7gvG9HKrc-48">
          <mxGeometry width="50" height="50" relative="1" as="geometry">
            <mxPoint x="2170" y="810" as="sourcePoint" />
            <mxPoint x="2220" y="760" as="targetPoint" />
          </mxGeometry>
        </mxCell>
        <mxCell id="5tHXkLdyoTB7gvG9HKrc-128" value="" style="endArrow=none;html=1;rounded=0;exitX=0.5;exitY=0;exitDx=0;exitDy=0;entryX=0.293;entryY=1.053;entryDx=0;entryDy=0;entryPerimeter=0;" edge="1" parent="1" source="5tHXkLdyoTB7gvG9HKrc-49" target="5tHXkLdyoTB7gvG9HKrc-17">
          <mxGeometry width="50" height="50" relative="1" as="geometry">
            <mxPoint x="2170" y="810" as="sourcePoint" />
            <mxPoint x="2220" y="760" as="targetPoint" />
          </mxGeometry>
        </mxCell>
        <mxCell id="5tHXkLdyoTB7gvG9HKrc-129" value="" style="endArrow=none;html=1;rounded=0;exitX=0.442;exitY=-0.019;exitDx=0;exitDy=0;exitPerimeter=0;entryX=0.714;entryY=1.019;entryDx=0;entryDy=0;entryPerimeter=0;" edge="1" parent="1" source="5tHXkLdyoTB7gvG9HKrc-46" target="5tHXkLdyoTB7gvG9HKrc-17">
          <mxGeometry width="50" height="50" relative="1" as="geometry">
            <mxPoint x="2170" y="810" as="sourcePoint" />
            <mxPoint x="2220" y="760" as="targetPoint" />
          </mxGeometry>
        </mxCell>
        <mxCell id="5tHXkLdyoTB7gvG9HKrc-131" value="" style="endArrow=none;html=1;rounded=0;exitX=0.793;exitY=0.084;exitDx=0;exitDy=0;exitPerimeter=0;entryX=0;entryY=0;entryDx=0;entryDy=0;" edge="1" parent="1" source="5tHXkLdyoTB7gvG9HKrc-25" target="5tHXkLdyoTB7gvG9HKrc-74">
          <mxGeometry width="50" height="50" relative="1" as="geometry">
            <mxPoint x="1550" y="850" as="sourcePoint" />
            <mxPoint x="1600" y="800" as="targetPoint" />
          </mxGeometry>
        </mxCell>
        <mxCell id="5tHXkLdyoTB7gvG9HKrc-132" value="" style="endArrow=none;html=1;rounded=0;exitX=0.405;exitY=-0.01;exitDx=0;exitDy=0;exitPerimeter=0;entryX=1;entryY=0.75;entryDx=0;entryDy=0;" edge="1" parent="1" source="5tHXkLdyoTB7gvG9HKrc-24" target="5tHXkLdyoTB7gvG9HKrc-13">
          <mxGeometry width="50" height="50" relative="1" as="geometry">
            <mxPoint x="1550" y="850" as="sourcePoint" />
            <mxPoint x="1540" y="850" as="targetPoint" />
          </mxGeometry>
        </mxCell>
        <mxCell id="5tHXkLdyoTB7gvG9HKrc-133" value="" style="endArrow=none;html=1;rounded=0;entryX=0.294;entryY=0.954;entryDx=0;entryDy=0;entryPerimeter=0;exitX=0.796;exitY=0.009;exitDx=0;exitDy=0;exitPerimeter=0;" edge="1" parent="1" source="5tHXkLdyoTB7gvG9HKrc-13" target="5tHXkLdyoTB7gvG9HKrc-26">
          <mxGeometry width="50" height="50" relative="1" as="geometry">
            <mxPoint x="1550" y="850" as="sourcePoint" />
            <mxPoint x="1600" y="800" as="targetPoint" />
          </mxGeometry>
        </mxCell>
        <mxCell id="5tHXkLdyoTB7gvG9HKrc-134" value="" style="endArrow=none;html=1;rounded=0;exitX=0.59;exitY=1.02;exitDx=0;exitDy=0;exitPerimeter=0;entryX=0.167;entryY=-0.039;entryDx=0;entryDy=0;entryPerimeter=0;" edge="1" parent="1" source="5tHXkLdyoTB7gvG9HKrc-23" target="5tHXkLdyoTB7gvG9HKrc-13">
          <mxGeometry width="50" height="50" relative="1" as="geometry">
            <mxPoint x="1480" y="800" as="sourcePoint" />
            <mxPoint x="1530" y="750" as="targetPoint" />
          </mxGeometry>
        </mxCell>
        <mxCell id="5tHXkLdyoTB7gvG9HKrc-135" value="" style="endArrow=none;html=1;rounded=0;entryX=0.716;entryY=0.984;entryDx=0;entryDy=0;entryPerimeter=0;exitX=0.304;exitY=0.035;exitDx=0;exitDy=0;exitPerimeter=0;" edge="1" parent="1" source="5tHXkLdyoTB7gvG9HKrc-20" target="5tHXkLdyoTB7gvG9HKrc-42">
          <mxGeometry width="50" height="50" relative="1" as="geometry">
            <mxPoint x="1000" y="810" as="sourcePoint" />
            <mxPoint x="1050" y="760" as="targetPoint" />
          </mxGeometry>
        </mxCell>
        <mxCell id="5tHXkLdyoTB7gvG9HKrc-136" value="" style="endArrow=none;html=1;rounded=0;entryX=0.347;entryY=0.976;entryDx=0;entryDy=0;entryPerimeter=0;exitX=0.663;exitY=-0.021;exitDx=0;exitDy=0;exitPerimeter=0;" edge="1" parent="1" source="5tHXkLdyoTB7gvG9HKrc-20" target="5tHXkLdyoTB7gvG9HKrc-40">
          <mxGeometry width="50" height="50" relative="1" as="geometry">
            <mxPoint x="1000" y="810" as="sourcePoint" />
            <mxPoint x="1050" y="760" as="targetPoint" />
          </mxGeometry>
        </mxCell>
        <mxCell id="5tHXkLdyoTB7gvG9HKrc-137" value="" style="endArrow=none;html=1;rounded=0;exitX=0.478;exitY=-0.003;exitDx=0;exitDy=0;exitPerimeter=0;entryX=0.466;entryY=1.005;entryDx=0;entryDy=0;entryPerimeter=0;" edge="1" parent="1" source="5tHXkLdyoTB7gvG9HKrc-41" target="5tHXkLdyoTB7gvG9HKrc-20">
          <mxGeometry width="50" height="50" relative="1" as="geometry">
            <mxPoint x="1000" y="810" as="sourcePoint" />
            <mxPoint x="1050" y="760" as="targetPoint" />
          </mxGeometry>
        </mxCell>
        <mxCell id="5tHXkLdyoTB7gvG9HKrc-138" value="" style="endArrow=none;html=1;rounded=0;exitX=1;exitY=0.5;exitDx=0;exitDy=0;entryX=0;entryY=0.5;entryDx=0;entryDy=0;" edge="1" parent="1" source="5tHXkLdyoTB7gvG9HKrc-35" target="5tHXkLdyoTB7gvG9HKrc-18">
          <mxGeometry width="50" height="50" relative="1" as="geometry">
            <mxPoint x="480" y="750" as="sourcePoint" />
            <mxPoint x="530" y="700" as="targetPoint" />
          </mxGeometry>
        </mxCell>
        <mxCell id="5tHXkLdyoTB7gvG9HKrc-139" value="" style="endArrow=none;html=1;rounded=0;exitX=1;exitY=0;exitDx=0;exitDy=0;entryX=0.25;entryY=1;entryDx=0;entryDy=0;" edge="1" parent="1" source="5tHXkLdyoTB7gvG9HKrc-39" target="5tHXkLdyoTB7gvG9HKrc-19">
          <mxGeometry width="50" height="50" relative="1" as="geometry">
            <mxPoint x="710" y="590" as="sourcePoint" />
            <mxPoint x="760" y="540" as="targetPoint" />
          </mxGeometry>
        </mxCell>
        <mxCell id="5tHXkLdyoTB7gvG9HKrc-140" value="" style="endArrow=none;html=1;rounded=0;exitX=1;exitY=0.5;exitDx=0;exitDy=0;entryX=0;entryY=0.5;entryDx=0;entryDy=0;" edge="1" parent="1" source="5tHXkLdyoTB7gvG9HKrc-38" target="5tHXkLdyoTB7gvG9HKrc-19">
          <mxGeometry width="50" height="50" relative="1" as="geometry">
            <mxPoint x="710" y="590" as="sourcePoint" />
            <mxPoint x="760" y="540" as="targetPoint" />
          </mxGeometry>
        </mxCell>
        <mxCell id="5tHXkLdyoTB7gvG9HKrc-141" value="" style="endArrow=none;html=1;rounded=0;entryX=0.77;entryY=1.017;entryDx=0;entryDy=0;entryPerimeter=0;exitX=0.25;exitY=0;exitDx=0;exitDy=0;" edge="1" parent="1" source="5tHXkLdyoTB7gvG9HKrc-19" target="5tHXkLdyoTB7gvG9HKrc-36">
          <mxGeometry width="50" height="50" relative="1" as="geometry">
            <mxPoint x="710" y="590" as="sourcePoint" />
            <mxPoint x="760" y="540" as="targetPoint" />
          </mxGeometry>
        </mxCell>
        <mxCell id="5tHXkLdyoTB7gvG9HKrc-142" value="" style="endArrow=none;html=1;rounded=0;entryX=0.5;entryY=1;entryDx=0;entryDy=0;exitX=0.75;exitY=0;exitDx=0;exitDy=0;" edge="1" parent="1" source="5tHXkLdyoTB7gvG9HKrc-19" target="5tHXkLdyoTB7gvG9HKrc-37">
          <mxGeometry width="50" height="50" relative="1" as="geometry">
            <mxPoint x="710" y="590" as="sourcePoint" />
            <mxPoint x="760" y="540" as="targetPoint" />
          </mxGeometry>
        </mxCell>
        <mxCell id="5tHXkLdyoTB7gvG9HKrc-143" value="" style="endArrow=none;html=1;rounded=0;exitX=1.002;exitY=0.636;exitDx=0;exitDy=0;exitPerimeter=0;entryX=0;entryY=0.75;entryDx=0;entryDy=0;" edge="1" parent="1" source="5tHXkLdyoTB7gvG9HKrc-21" target="5tHXkLdyoTB7gvG9HKrc-12">
          <mxGeometry width="50" height="50" relative="1" as="geometry">
            <mxPoint x="450" y="370" as="sourcePoint" />
            <mxPoint x="500" y="320" as="targetPoint" />
          </mxGeometry>
        </mxCell>
        <mxCell id="5tHXkLdyoTB7gvG9HKrc-144" value="" style="endArrow=none;html=1;rounded=0;entryX=0.678;entryY=0.959;entryDx=0;entryDy=0;entryPerimeter=0;exitX=0;exitY=0.25;exitDx=0;exitDy=0;" edge="1" parent="1" source="5tHXkLdyoTB7gvG9HKrc-12" target="5tHXkLdyoTB7gvG9HKrc-22">
          <mxGeometry width="50" height="50" relative="1" as="geometry">
            <mxPoint x="450" y="370" as="sourcePoint" />
            <mxPoint x="500" y="320" as="targetPoint" />
          </mxGeometry>
        </mxCell>
        <mxCell id="5tHXkLdyoTB7gvG9HKrc-145" value="" style="endArrow=none;html=1;rounded=0;entryX=0.318;entryY=1.088;entryDx=0;entryDy=0;entryPerimeter=0;" edge="1" parent="1" source="5tHXkLdyoTB7gvG9HKrc-9" target="5tHXkLdyoTB7gvG9HKrc-6">
          <mxGeometry width="50" height="50" relative="1" as="geometry">
            <mxPoint x="790" y="290" as="sourcePoint" />
            <mxPoint x="840" y="240" as="targetPoint" />
          </mxGeometry>
        </mxCell>
        <mxCell id="5tHXkLdyoTB7gvG9HKrc-146" value="" style="endArrow=none;html=1;rounded=0;exitX=0.249;exitY=0.041;exitDx=0;exitDy=0;exitPerimeter=0;entryX=0.75;entryY=1;entryDx=0;entryDy=0;" edge="1" parent="1" source="5tHXkLdyoTB7gvG9HKrc-10" target="5tHXkLdyoTB7gvG9HKrc-6">
          <mxGeometry width="50" height="50" relative="1" as="geometry">
            <mxPoint x="790" y="290" as="sourcePoint" />
            <mxPoint x="840" y="240" as="targetPoint" />
          </mxGeometry>
        </mxCell>
        <mxCell id="5tHXkLdyoTB7gvG9HKrc-147" value="" style="endArrow=none;html=1;rounded=0;entryX=0.5;entryY=1;entryDx=0;entryDy=0;exitX=0.75;exitY=0;exitDx=0;exitDy=0;" edge="1" parent="1" source="5tHXkLdyoTB7gvG9HKrc-6" target="5tHXkLdyoTB7gvG9HKrc-7">
          <mxGeometry width="50" height="50" relative="1" as="geometry">
            <mxPoint x="790" y="290" as="sourcePoint" />
            <mxPoint x="840" y="240" as="targetPoint" />
          </mxGeometry>
        </mxCell>
        <mxCell id="5tHXkLdyoTB7gvG9HKrc-148" value="" style="endArrow=none;html=1;rounded=0;entryX=0.645;entryY=1.017;entryDx=0;entryDy=0;entryPerimeter=0;" edge="1" parent="1" source="5tHXkLdyoTB7gvG9HKrc-6" target="5tHXkLdyoTB7gvG9HKrc-8">
          <mxGeometry width="50" height="50" relative="1" as="geometry">
            <mxPoint x="790" y="290" as="sourcePoint" />
            <mxPoint x="840" y="240" as="targetPoint" />
          </mxGeometry>
        </mxCell>
        <mxCell id="5tHXkLdyoTB7gvG9HKrc-149" value="" style="endArrow=none;html=1;rounded=0;exitX=0.696;exitY=0.95;exitDx=0;exitDy=0;exitPerimeter=0;entryX=0.197;entryY=-0.033;entryDx=0;entryDy=0;entryPerimeter=0;" edge="1" parent="1" source="5tHXkLdyoTB7gvG9HKrc-4" target="5tHXkLdyoTB7gvG9HKrc-1">
          <mxGeometry width="50" height="50" relative="1" as="geometry">
            <mxPoint x="1550" y="320" as="sourcePoint" />
            <mxPoint x="1600" y="270" as="targetPoint" />
          </mxGeometry>
        </mxCell>
        <mxCell id="5tHXkLdyoTB7gvG9HKrc-150" value="" style="endArrow=none;html=1;rounded=0;entryX=0.5;entryY=1;entryDx=0;entryDy=0;exitX=0.337;exitY=-0.033;exitDx=0;exitDy=0;exitPerimeter=0;" edge="1" parent="1" source="5tHXkLdyoTB7gvG9HKrc-1" target="5tHXkLdyoTB7gvG9HKrc-3">
          <mxGeometry width="50" height="50" relative="1" as="geometry">
            <mxPoint x="1550" y="320" as="sourcePoint" />
            <mxPoint x="1600" y="270" as="targetPoint" />
          </mxGeometry>
        </mxCell>
        <mxCell id="5tHXkLdyoTB7gvG9HKrc-151" value="" style="endArrow=none;html=1;rounded=0;entryX=0.402;entryY=1.019;entryDx=0;entryDy=0;entryPerimeter=0;exitX=0.637;exitY=-0.007;exitDx=0;exitDy=0;exitPerimeter=0;" edge="1" parent="1" source="5tHXkLdyoTB7gvG9HKrc-1" target="5tHXkLdyoTB7gvG9HKrc-5">
          <mxGeometry width="50" height="50" relative="1" as="geometry">
            <mxPoint x="1550" y="320" as="sourcePoint" />
            <mxPoint x="1600" y="270" as="targetPoint" />
          </mxGeometry>
        </mxCell>
        <mxCell id="5tHXkLdyoTB7gvG9HKrc-152" value="" style="endArrow=none;html=1;rounded=0;exitX=0.843;exitY=-0.02;exitDx=0;exitDy=0;exitPerimeter=0;entryX=0.098;entryY=0.808;entryDx=0;entryDy=0;entryPerimeter=0;" edge="1" parent="1" source="5tHXkLdyoTB7gvG9HKrc-1" target="5tHXkLdyoTB7gvG9HKrc-2">
          <mxGeometry width="50" height="50" relative="1" as="geometry">
            <mxPoint x="1550" y="320" as="sourcePoint" />
            <mxPoint x="1600" y="270" as="targetPoint" />
          </mxGeometry>
        </mxCell>
        <mxCell id="5tHXkLdyoTB7gvG9HKrc-153" value="" style="endArrow=none;html=1;rounded=0;entryX=0.5;entryY=1;entryDx=0;entryDy=0;exitX=0.5;exitY=0;exitDx=0;exitDy=0;" edge="1" parent="1" source="5tHXkLdyoTB7gvG9HKrc-16" target="5tHXkLdyoTB7gvG9HKrc-44">
          <mxGeometry width="50" height="50" relative="1" as="geometry">
            <mxPoint x="2010" y="420" as="sourcePoint" />
            <mxPoint x="2060" y="370" as="targetPoint" />
          </mxGeometry>
        </mxCell>
        <mxCell id="5tHXkLdyoTB7gvG9HKrc-154" value="" style="endArrow=none;html=1;rounded=0;entryX=0;entryY=0.5;entryDx=0;entryDy=0;exitX=1;exitY=0.5;exitDx=0;exitDy=0;" edge="1" parent="1" source="5tHXkLdyoTB7gvG9HKrc-16" target="5tHXkLdyoTB7gvG9HKrc-43">
          <mxGeometry width="50" height="50" relative="1" as="geometry">
            <mxPoint x="2010" y="420" as="sourcePoint" />
            <mxPoint x="2060" y="370" as="targetPoint" />
          </mxGeometry>
        </mxCell>
      </root>
    </mxGraphModel>
  </diagram>
</mxfile>
